<svg width="100" height="100" viewBox="0 0 100 100" fill="none" xmlns="http://www.w3.org/2000/svg">
<mask id="mask0_99_218" style="mask-type:luminance" maskUnits="userSpaceOnUse" x="25" y="4" width="50" height="60">
<path d="M25 4H75V39C75 52.807 63.807 64 50 64C36.1929 64 25 52.807 25 39V4Z" fill="white"/>
</mask>
<g mask="url(#mask0_99_218)">
<path d="M75 4H65V14H75V4Z" fill="#21D000"/>
<path d="M75 14H65V24H75V14Z" fill="#21D000"/>
<path d="M65 14H55V24H65V14Z" fill="#21D000"/>
<path d="M55 14H45V24H55V14Z" fill="#A5FF00"/>
<path d="M75 24H65V34H75V24Z" fill="#00AE3A"/>
<path d="M65 24H55V34H65V24Z" fill="#21D000"/>
<path d="M55 24H45V34H55V24Z" fill="#21D000"/>
<path d="M45 24H35V34H45V24Z" fill="#A5FF00"/>
<path d="M75 34H65V44H75V34Z" fill="#00AE3A"/>
<path d="M65 34H55V44H65V34Z" fill="#00AE3A"/>
<path d="M55 34H45V44H55V34Z" fill="#21D000"/>
<path d="M45 34H35V44H45V34Z" fill="#21D000"/>
<path d="M35 34H25V44H35V34Z" fill="#A5FF00"/>
<path d="M75 44H65V54H75V44Z" fill="#014421"/>
<path d="M65 44H55V54H65V44Z" fill="#014421"/>
<path d="M55 44H45V54H55V44Z" fill="#00AE3A"/>
<path d="M45 44H35V54H45V44Z" fill="#21D000"/>
<path d="M35 44H25V54H35V44Z" fill="#00AE3A"/>
<path d="M75 54H65V64H75V54Z" fill="#014421"/>
<path d="M65 54H55V64H65V54Z" fill="#014421"/>
<path d="M55 54H45V64H55V54Z" fill="#014421"/>
<path d="M45 54H35V64H45V54Z" fill="#014421"/>
<path d="M35 54H25V64H35V54Z" fill="#00AE3A"/>
</g>
<path d="M36.0259 73H41.1103C38.8506 68.7335 42.0519 64.3335 43.935 62.6665L44.5 62.3335L41.1103 62C36.5908 65.2 35.8376 70.6665 36.0259 73Z" fill="#014421"/>
<path d="M91.209 85.55V83.75L95.679 82.385V82.115L91.209 80.75V78.95L97.509 81.08V83.42L91.209 85.55Z" fill="#014421"/>
<path d="M83.6535 90.5L88.0635 77H89.9535L85.5435 90.5H83.6535Z" fill="#014421"/>
<path d="M79.8815 87.71C79.1415 87.71 78.4865 87.555 77.9165 87.245C77.3565 86.925 76.9165 86.48 76.5965 85.91C76.2865 85.33 76.1315 84.65 76.1315 83.87V83.69C76.1315 82.91 76.2865 82.235 76.5965 81.665C76.9065 81.085 77.3415 80.64 77.9015 80.33C78.4615 80.01 79.1115 79.85 79.8515 79.85C80.5815 79.85 81.2165 80.015 81.7565 80.345C82.2965 80.665 82.7165 81.115 83.0165 81.695C83.3165 82.265 83.4665 82.93 83.4665 83.69V84.335H78.0515C78.0715 84.845 78.2615 85.26 78.6215 85.58C78.9815 85.9 79.4215 86.06 79.9415 86.06C80.4715 86.06 80.8615 85.945 81.1115 85.715C81.3615 85.485 81.5515 85.23 81.6815 84.95L83.2265 85.76C83.0865 86.02 82.8815 86.305 82.6115 86.615C82.3515 86.915 82.0015 87.175 81.5615 87.395C81.1215 87.605 80.5615 87.71 79.8815 87.71ZM78.0665 82.925H81.5465C81.5065 82.495 81.3315 82.15 81.0215 81.89C80.7215 81.63 80.3265 81.5 79.8365 81.5C79.3265 81.5 78.9215 81.63 78.6215 81.89C78.3215 82.15 78.1365 82.495 78.0665 82.925Z" fill="#014421"/>
<path d="M67.248 87.5V80.06H69.108V81.035H69.378C69.498 80.775 69.723 80.53 70.053 80.3C70.383 80.06 70.883 79.94 71.553 79.94C72.133 79.94 72.638 80.075 73.068 80.345C73.508 80.605 73.848 80.97 74.088 81.44C74.328 81.9 74.448 82.44 74.448 83.06V87.5H72.558V83.21C72.558 82.65 72.418 82.23 72.138 81.95C71.868 81.67 71.478 81.53 70.968 81.53C70.388 81.53 69.938 81.725 69.618 82.115C69.298 82.495 69.138 83.03 69.138 83.72V87.5H67.248Z" fill="#014421"/>
<path d="M63.264 87.5V80.06H65.154V87.5H63.264ZM64.209 79.19C63.869 79.19 63.579 79.08 63.339 78.86C63.109 78.64 62.994 78.35 62.994 77.99C62.994 77.63 63.109 77.34 63.339 77.12C63.579 76.9 63.869 76.79 64.209 76.79C64.559 76.79 64.849 76.9 65.079 77.12C65.309 77.34 65.424 77.63 65.424 77.99C65.424 78.35 65.309 78.64 65.079 78.86C64.849 79.08 64.559 79.19 64.209 79.19Z" fill="#014421"/>
<path d="M59.2795 87.5V77H61.1695V87.5H59.2795Z" fill="#014421"/>
<path d="M50.0365 87.5V80.06H51.8965V81.035H52.1665C52.2865 80.775 52.5115 80.53 52.8415 80.3C53.1715 80.06 53.6715 79.94 54.3415 79.94C54.9215 79.94 55.4265 80.075 55.8565 80.345C56.2965 80.605 56.6365 80.97 56.8765 81.44C57.1165 81.9 57.2365 82.44 57.2365 83.06V87.5H55.3465V83.21C55.3465 82.65 55.2065 82.23 54.9265 81.95C54.6565 81.67 54.2665 81.53 53.7565 81.53C53.1765 81.53 52.7265 81.725 52.4065 82.115C52.0865 82.495 51.9265 83.03 51.9265 83.72V87.5H50.0365Z" fill="#014421"/>
<path d="M44.3917 87.71C43.6517 87.71 42.9867 87.56 42.3967 87.26C41.8067 86.96 41.3417 86.525 41.0017 85.955C40.6617 85.385 40.4917 84.7 40.4917 83.9V83.66C40.4917 82.86 40.6617 82.175 41.0017 81.605C41.3417 81.035 41.8067 80.6 42.3967 80.3C42.9867 80 43.6517 79.85 44.3917 79.85C45.1317 79.85 45.7967 80 46.3867 80.3C46.9767 80.6 47.4417 81.035 47.7817 81.605C48.1217 82.175 48.2917 82.86 48.2917 83.66V83.9C48.2917 84.7 48.1217 85.385 47.7817 85.955C47.4417 86.525 46.9767 86.96 46.3867 87.26C45.7967 87.56 45.1317 87.71 44.3917 87.71ZM44.3917 86.03C44.9717 86.03 45.4517 85.845 45.8317 85.475C46.2117 85.095 46.4017 84.555 46.4017 83.855V83.705C46.4017 83.005 46.2117 82.47 45.8317 82.1C45.4617 81.72 44.9817 81.53 44.3917 81.53C43.8117 81.53 43.3317 81.72 42.9517 82.1C42.5717 82.47 42.3817 83.005 42.3817 83.705V83.855C42.3817 84.555 42.5717 85.095 42.9517 85.475C43.3317 85.845 43.8117 86.03 44.3917 86.03Z" fill="#014421"/>
<path d="M37.6568 87.71C37.2568 87.71 36.9168 87.58 36.6368 87.32C36.3668 87.05 36.2318 86.705 36.2318 86.285C36.2318 85.865 36.3668 85.525 36.6368 85.265C36.9168 84.995 37.2568 84.86 37.6568 84.86C38.0668 84.86 38.4068 84.995 38.6768 85.265C38.9468 85.525 39.0818 85.865 39.0818 86.285C39.0818 86.705 38.9468 87.05 38.6768 87.32C38.4068 87.58 38.0668 87.71 37.6568 87.71Z" fill="#014421"/>
<path d="M30.4147 87.5L28.0447 80.06H30.0547L31.7797 86.12H32.0497L33.7747 80.06H35.7847L33.4147 87.5H30.4147Z" fill="#014421"/>
<path d="M23.8072 87.71C23.0672 87.71 22.4122 87.555 21.8422 87.245C21.2822 86.925 20.8422 86.48 20.5222 85.91C20.2122 85.33 20.0572 84.65 20.0572 83.87V83.69C20.0572 82.91 20.2122 82.235 20.5222 81.665C20.8322 81.085 21.2672 80.64 21.8272 80.33C22.3872 80.01 23.0372 79.85 23.7772 79.85C24.5072 79.85 25.1422 80.015 25.6822 80.345C26.2222 80.665 26.6422 81.115 26.9422 81.695C27.2422 82.265 27.3922 82.93 27.3922 83.69V84.335H21.9772C21.9972 84.845 22.1872 85.26 22.5472 85.58C22.9072 85.9 23.3472 86.06 23.8672 86.06C24.3972 86.06 24.7872 85.945 25.0372 85.715C25.2872 85.485 25.4772 85.23 25.6072 84.95L27.1522 85.76C27.0122 86.02 26.8072 86.305 26.5372 86.615C26.2772 86.915 25.9272 87.175 25.4872 87.395C25.0472 87.605 24.4872 87.71 23.8072 87.71ZM21.9922 82.925H25.4722C25.4322 82.495 25.2572 82.15 24.9472 81.89C24.6472 81.63 24.2522 81.5 23.7622 81.5C23.2522 81.5 22.8472 81.63 22.5472 81.89C22.2472 82.15 22.0622 82.495 21.9922 82.925Z" fill="#014421"/>
<path d="M13.8517 87.71C13.2617 87.71 12.7067 87.565 12.1867 87.275C11.6767 86.975 11.2667 86.54 10.9567 85.97C10.6467 85.4 10.4917 84.71 10.4917 83.9V83.66C10.4917 82.85 10.6467 82.16 10.9567 81.59C11.2667 81.02 11.6767 80.59 12.1867 80.3C12.6967 80 13.2517 79.85 13.8517 79.85C14.3017 79.85 14.6767 79.905 14.9767 80.015C15.2867 80.115 15.5367 80.245 15.7267 80.405C15.9167 80.565 16.0617 80.735 16.1617 80.915H16.4317V77H18.3217V87.5H16.4617V86.6H16.1917C16.0217 86.88 15.7567 87.135 15.3967 87.365C15.0467 87.595 14.5317 87.71 13.8517 87.71ZM14.4217 86.06C15.0017 86.06 15.4867 85.875 15.8767 85.505C16.2667 85.125 16.4617 84.575 16.4617 83.855V83.705C16.4617 82.985 16.2667 82.44 15.8767 82.07C15.4967 81.69 15.0117 81.5 14.4217 81.5C13.8417 81.5 13.3567 81.69 12.9667 82.07C12.5767 82.44 12.3817 82.985 12.3817 83.705V83.855C12.3817 84.575 12.5767 85.125 12.9667 85.505C13.3567 85.875 13.8417 86.06 14.4217 86.06Z" fill="#014421"/>
<path d="M8.3 85.55L2 83.42V81.08L8.3 78.95V80.75L3.83 82.115V82.385L8.3 83.75V85.55Z" fill="#014421"/>
</svg>
