<svg aria-hidden="true" style="position: absolute; width: 0; height: 0; overflow: hidden;" version="1.1" xmlns="http://www.w3.org/2000/svg" xmlns:xlink="http://www.w3.org/1999/xlink">
  <defs>

<symbol id="icon-language" viewBox="0 0 32 32">
<path fill="none" stroke="#014421" style="stroke: var(--color1, #014421)" stroke-linejoin="round" stroke-linecap="round" stroke-miterlimit="4" stroke-width="1.3333" d="M4.8 12h22.4M4.8 20h22.4M15.333 4c-2.246 3.599-3.437 7.757-3.437 12s1.191 8.401 3.437 12M16.667 4c2.246 3.599 3.437 7.757 3.437 12s-1.191 8.401-3.437 12M4 16c0 1.576 0.31 3.136 0.913 4.592s1.487 2.779 2.601 3.893c1.114 1.114 2.437 1.998 3.893 2.601s3.016 0.913 4.592 0.913c1.576 0 3.136-0.31 4.592-0.913s2.779-1.487 3.893-2.601c1.114-1.114 1.998-2.437 2.601-3.893s0.913-3.016 0.913-4.592c0-3.183-1.264-6.235-3.515-8.485s-5.303-3.515-8.485-3.515-6.235 1.264-8.485 3.515c-2.25 2.25-3.515 5.303-3.515 8.485z"></path>
</symbol>

<symbol id="phone" viewBox="0 0 32 32">

  <path
    fill="none"
    stroke="currentColor"
    stroke-linejoin="round"
    stroke-linecap="round"
    stroke-miterlimit="4"
    stroke-width="3.3684"
    d="M5.053 1.684h6.737l3.368 8.421-4.211 2.526c1.804 3.657 4.764 6.617 8.421 8.421l2.526-4.211 8.421 3.368v6.737c0 0.893-0.355 1.75-0.987 2.382s-1.488 0.987-2.382 0.987c-6.57-0.399-12.766-3.189-17.42-7.843s-7.444-10.85-7.843-17.42c0-0.893 0.355-1.75 0.987-2.382s1.488-0.987 2.382-0.987z"
  />
</symbol>

<symbol id="facebook" viewBox="0 0 32 32">
<path     fill="none"
    stroke="currentColor"
    stroke-linejoin="round"
    stroke-linecap="round"
stroke-miterlimit="4" stroke-width="2.6667" 
d="M9.333 13.333v5.333h4v9.333h5.333v-9.333h4l1.333-5.333h-5.333v-2.667c0-0.354 0.141-0.693 0.391-0.943s0.589-0.391 0.943-0.391h4v-5.333h-4c-1.768 0-3.464 0.702-4.714 1.953s-1.953 2.946-1.953 4.714v2.667h-4z"></path>
</symbol>

<symbol id="instagram" viewBox="0 0 32 32">
<path 
  fill="none"
    stroke="currentColor"
    stroke-linejoin="round"
    stroke-linecap="round"
stroke-miterlimit="4"
 stroke-width="3.5556"
  d="M24 8v0.018M1.778 8.889c0-1.886 0.749-3.695 2.083-5.028s3.142-2.083 5.028-2.083h14.222c1.886 0 3.695 0.749 5.028 2.083s2.083 3.142 2.083 5.028v14.222c0 1.886-0.749 3.695-2.083 5.028s-3.142 2.083-5.028 2.083h-14.222c-1.886 0-3.695-0.749-5.028-2.083s-2.083-3.142-2.083-5.028v-14.222zM10.667 16c0 1.415 0.562 2.771 1.562 3.771s2.357 1.562 3.771 1.562c1.415 0 2.771-0.562 3.771-1.562s1.562-2.357 1.562-3.771c0-1.415-0.562-2.771-1.562-3.771s-2.357-1.562-3.771-1.562c-1.415 0-2.771 0.562-3.771 1.562s-1.562 2.357-1.562 3.771z"></path>
</symbol>


<symbol id="tictok" viewBox="0 0 32 32">
<path 
  fill="none"
    stroke="currentColor"
    stroke-linejoin="round"
    stroke-linecap="round"
 stroke-miterlimit="4" 
stroke-width="2.6667"
 d="M28 10.556v5.379c-2.419-0.24-4.725-1.14-6.667-2.601v6c-0 1.628-0.459 3.223-1.324 4.603s-2.101 2.487-3.567 3.196c-1.466 0.709-3.101 0.991-4.72 0.814s-3.154-0.807-4.431-1.817-2.244-2.359-2.79-3.893c-0.546-1.534-0.648-3.191-0.296-4.78s1.145-3.048 2.288-4.208c1.143-1.16 2.589-1.974 4.173-2.35v5.768c-0.455 0.341-0.814 0.792-1.045 1.311s-0.325 1.089-0.274 1.655c0.051 0.566 0.246 1.109 0.566 1.579s0.755 0.849 1.263 1.103c0.508 0.254 1.073 0.374 1.641 0.349s1.119-0.196 1.603-0.495c0.483-0.299 0.882-0.716 1.159-1.212s0.422-1.055 0.422-1.623v-15.333h5.444c0.278 1.638 1.058 3.149 2.233 4.324s2.686 1.955 4.323 2.232z"></path>
</symbol>

  </defs>
</svg>


